<svg width="100%" height="100%" viewBox="0 0 550 574" version="1.1" xmlns="http://www.w3.org/2000/svg" xmlns:xlink="http://www.w3.org/1999/xlink" xml:space="preserve" xmlns:serif="http://www.serif.com/" style="fill-rule:evenodd;clip-rule:evenodd;stroke-linecap:round;stroke-linejoin:round;stroke-miterlimit:1.5;">
    <g transform="matrix(1,0,0,1,-80,-643)">
        <g transform="matrix(1,0,0,1,0,480)">
            <g transform="matrix(1,0,0,1,78,24.5004)">
                <g transform="matrix(0.854701,0,0,0.869565,147.778,-357.739)">
                    <ellipse cx="318.5" cy="772.5" rx="58.5" ry="57.5" style="fill:none;stroke:rgb(236,236,236);stroke-width:11.6px;"/>
                </g>
                <g transform="matrix(1,0,0,0.68254,5,-218.889)">
                    <rect x="410" y="854" width="10" height="252" style="fill:rgb(236,236,236);"/>
                </g>
                <g>
                    <g transform="matrix(0.819152,0.573576,-0.250804,0.358185,294.537,-155.057)">
                        <rect x="410" y="854" width="10" height="252" style="fill:rgb(236,236,236);"/>
                    </g>
                    <g transform="matrix(-0.819152,0.573576,0.250804,0.358185,545.857,-155.057)">
                        <rect x="410" y="854" width="10" height="252" style="fill:rgb(236,236,236);"/>
                    </g>
                </g>
                <g transform="matrix(1,0,0,1,0,143.001)">
                    <g transform="matrix(0.819152,0.573576,-0.250804,0.358185,294.537,-155.057)">
                        <rect x="410" y="854" width="10" height="252" style="fill:rgb(236,236,236);"/>
                    </g>
                    <g transform="matrix(-0.819152,0.573576,0.250804,0.358185,545.857,-155.057)">
                        <rect x="410" y="854" width="10" height="252" style="fill:rgb(236,236,236);"/>
                    </g>
                </g>
                <g transform="matrix(1,0,0,0.279763,5.19707,-45.4183)">
                    <rect x="410" y="854" width="10" height="252" style="fill:rgb(236,236,236);"/>
                </g>
            </g>
        </g>
        <g transform="matrix(1,0,0,1,0,499)">
            <g transform="matrix(1,0,0,1,0,-480)">
                <rect x="80" y="1161" width="215" height="37" style="fill:rgb(38,44,53);"/>
            </g>
        </g>
        <g transform="matrix(1,0,0,1,0,499)">
            <g transform="matrix(1.54156e-16,2.49767,-1,6.42738e-17,1367,-55.814)">
                <rect x="80" y="1161" width="215" height="37" style="fill:rgb(38,44,53);"/>
            </g>
        </g>
        <g transform="matrix(1,0,0,1,0,499)">
            <g transform="matrix(2.45814,-3.46945e-18,3.41453e-18,1,-95.1512,-999)">
                <rect x="80" y="1161" width="215" height="37" style="fill:rgb(38,44,53);"/>
            </g>
        </g>
        <g transform="matrix(1,0,0,1,0,499)">
            <g transform="matrix(0.795349,-0.459195,0.27027,0.468122,-204.412,-231.618)">
                <rect x="80" y="1161" width="215" height="37" style="fill:rgb(38,44,53);"/>
            </g>
        </g>
    </g>
</svg>
